<svg xmlns="http://www.w3.org/2000/svg" viewBox="0 0 597.05 316.29"><defs><style>.cls-1{fill:#3a5d81;}.cls-2{fill:#fff;}.cls-3{fill:#ebeef2;}</style></defs><g id="Ebene_2" data-name="Ebene 2"><g id="Ebene_1-2" data-name="Ebene 1"><path class="cls-1" d="M252.08,111.77c-.17-4.2,1.58-5.77,5.75-6.32A12.1,12.1,0,0,0,268.7,94.64c.61-4.23,2.12-6.42,6.64-5.66,2.54.42,3.66-.61,4.5-3.22A17,17,0,0,1,291.78,74c4-1.08,3-3.76,3-6.24,0-1.35.61-3.58-1.57-3.51-2.48.08-5.71-2-7.3,1.9-1.28,3.12-4.13,2.26-6.5,2.28-12,.09-10.83.74-10.83-10.66,0-8,0-8,8.12-8.41,1.66-.08,3.13.13,3.77-2.19.76-2.75,3.46-1.84,5.51-2.12,3.56-.47,8.08,2,10.09-3.43.4-1.06,2.1-.93,3.18-.37,1.57.8,1.67,2.4,1.68,3.9,0,7.15.25,14.31-.06,21.45-.18,4.28.6,6.9,5.27,8.36s8,5.46,9.43,10.29c.94,3.24,2.57,4.18,5.66,3.77,3.35-.45,5,.73,5.49,4.52.92,7.1,5.37,11.15,12.48,12.2,1.73.26,3.89.38,3.88,2.28,0,3.65,1.35,3.57,4.39,3.11,4-.61,7.32,1.64,10.17,4.39,3.11,3,6.12,6.12,9.37,9a18,18,0,0,0,9.9,4.36c3,.36,6.63-.17,6.51,4.77,0,1.81,1.78.89,2.78,1,9.36.74,14.26,8.28,10.92,16.84-2.64,6.76-.93,13.79-1.17,20.69-.09,2.61,2.44,1.58,3.88,1.68,2.64.17,5.6-.42,6,3.52.16,1.72,1.5,1.5,2.62,1.5,17.3,0,34.61,0,51.92,0,2.17,0,2.91-.7,2.83-2.85-.09-2.59,1.65-3.39,4-3.33h.49c17.58.32,14.79-2.75,15.06,14.39.12,7.94-1,6.93,6.8,7,8.29.06,8.7.49,6,8.07-1.28,3.65-1.11,8.61-7.22,8.37-1.37-.05-1,1.87-1,2.95,0,30.94,0,61.88-.07,92.82,0,2.94,1.09,3.67,3.8,3.62,7.32-.13,14.64,0,22-.1,1.41,0,3.83,1.05,3.92-1.58s1.53-5.94-1-7.45c-9.82-5.92-9.65-15.27-8.78-24.66,1-11.15,4.36-21.77,9-32,.74-1.66,1.59-3.4,3.78-3.54,2-.13,3.11,1.19,3.8,2.73,6.16,13.77,10.71,27.93,9.41,43.29-.48,5.71-2.9,10.62-8.07,13.59-3.68,2.1-1.79,5.36-1.79,8,0,2.83,2.82,1.55,4.35,1.58,7.32.14,14.65-.07,22,.12,3.12.09,3.89-1,4-4,.09-4.48-.3-7.8-4.88-10.67-5.65-3.55-7.42-10.13-7.57-16.62-.39-17.3,4.56-33.42,11.44-49.06.76-1.73,1.77-3.4,3.83-3.53,2.37-.15,3.49,1.71,4.31,3.56,6.73,15.15,11.51,30.83,11.38,47.58-.06,8.51-2.86,15.71-10.78,20.59-3.75,2.31-1.64,7.08-1.37,10.62.2,2.6,3.28,1.4,5,1.42,9,.13,18,0,27,.08,2.27,0,5.17-.38,5.12,3.1s-3,2.87-5.22,3c-.83.05-1.67,0-2.5,0q-290.81,0-581.61-.1c-2.8,0-7.91,2.14-7.71-3.21.17-4.6,4.93-2.6,7.72-2.74,5.64-.29,11.31,0,17-.14,1.58,0,4.26,1.09,4.37-1.72s1.8-6.71-1-8.4c-9.53-5.77-10.73-14.76-10-24.32a108.5,108.5,0,0,1,9.51-35.94c.92-2.07,1.58-4.67,4.46-4.79,3.21-.13,3.89,2.67,4.86,4.9a113,113,0,0,1,9.59,36.94c.68,9.12-1,17.46-9.73,23-3,1.93-1.42,5.85-1.17,8.78.22,2.66,2.91,1.53,4.5,1.55,8.66.11,17.32-.17,26,.15,4.3.15,3.86-2.28,3.85-5s.37-5-3.68-4.55a74.92,74.92,0,0,1-9.48.06c-3.3,0-4.48-1.77-3.78-4.88q8.18-36.19,16.37-72.37c.38-1.68.89-3.38,3-3.38s3,1.6,3.44,3.57q8,35.72,16.06,71.42c1,4.27-.54,6-4.79,5.67-2-.13-4,.2-6-.07-4-.55-5.51.76-5.32,5.06.15,3.47,1.09,4.55,4.56,4.46,8.15-.23,16.31-.16,24.46,0,2.73,0,3.79-.73,3.78-3.65q-.14-46.16,0-92.31c0-2.21-.06-4-3-3.78-2.2.17-3.3-1.2-3.82-3.18-.17-.64-.45-1.25-.66-1.88-3.69-10.83-3.69-11,7.61-10.94,3.38,0,4.81-.8,4.56-4.41-.29-4.14,0-8.31-.1-12.47-.1-3.44,1.41-4.84,4.82-4.63,2.65.16,5.32.06,8,0,3.4-.05,7-.52,6.72,4.74-.08,1.73,1.55,1.4,2.63,1.4q26,0,51.92,0c.78,0,2.23-.23,2.25-.46.59-5.65,4.85-4.41,8.34-4.5,2-.06,2.06-1.33,1.94-2.7-.62-7.2,1.13-14.43-1.67-21.65-2.69-6.95,2.84-14.26,10.46-14.78,2.3-.16,4.16,0,4.13-3.18,0-1.82,1.81-2.28,3.34-2.33,8.37-.3,14-5.16,19.33-11C239.65,113.41,244.48,109.3,252.08,111.77Zm45.78,78.34H210.51c-2.46,0-4.86-.58-4.84,3.53q.2,56.38,0,112.76c0,2.48.59,3.61,3.3,3.58,8.49-.12,17-.07,25.46,0,1.91,0,2.94-.29,3.12-2.65.55-7.36.68-7.35,7.9-7.35,2.16,0,4.34-.14,6.48,0,2.76.23,3.76-.71,3.74-3.61-.12-18.79-.06-37.58-.08-56.38,0-1,0-2.74-.34-2.81-6.53-1.53-4.36-7.38-5.63-11.38-1.16-3.68.37-5.62,4.53-5.45,5.15.2,10.32-.08,15.47.08s8.46-1.52,9.3-6.83c.36-2.22,1.6-3.32,3.76-3,2.65.41,3.57-1,4.7-3.13,4.68-8.65,16.57-9.47,21.83-1.4,1.82,2.79,3.11,5.12,7,4.65,1.77-.22,2.1,1.63,2.4,3.2.9,4.69,4,6.57,8.6,6.48s9.32,0,14,0c7.52,0,7.58,0,6.28,7.6-.49,2.84.32,6.92-2.81,7.94-3.35,1.09-2.85,3-2.85,5.23q0,23.2,0,46.4c0,12.28,0,12.46,12.41,12.28,4.63-.06,6.59,1.54,5.93,6.05-.52,3.49,1.14,4.17,4.23,4.09,6.65-.19,13.33-.34,20,0,4.35.24,5.6-1,5.58-5.46q-.3-54.63,0-109.26c0-4.08-1-5.34-5.19-5.31C355.77,190.2,326.81,190.11,297.86,190.11Zm64.48-16.29c8,0,16,0,24,0,2,0,4,0,3.49-2.73-.74-4.32,1.88-9-1.53-13-.13-.15-.64,0-1,.06-2.06.06-3.76-.61-3.88-2.88-.11-2.06,1.57-2.55,3.26-3.11,4.85-1.58,6.54-4.4,5-7.91s-4.41-4.37-9.1-2.12c-2.39,1.14-5.18.94-4.93-1.64.54-5.54-3-5.78-6.63-6.93-5.69-1.79-10-5.76-14-10a50.5,50.5,0,0,0-4.63-4.51c-1.82-1.5-3.83-2.77-6.33-1.29-1.71,1-2.79,2.48-2.52,4.49.36,2.67,2.21,4,4.75,4.37,2,.27,3.11,1.47,2.8,3.34-.35,2.15-2.06,2.81-4.15,2.62a10.82,10.82,0,0,1-9.47-10.05,37.31,37.31,0,0,1,0-6c.25-3.11-.26-5-4-6a16.1,16.1,0,0,1-11.29-11.08c-1.05-3.47-2.62-5-6.24-4.44-3.32.52-4.59-1.09-5.13-4.39-1.16-7.07-6.47-11.66-12.81-11.7s-11.77,4.45-13,11.51c-.6,3.49-1.84,5.12-5.42,4.61-3-.43-4.71.39-5.66,3.79a16.62,16.62,0,0,1-11.4,11.66c-3.78,1.16-4.52,3.06-4.18,6.4a30.4,30.4,0,0,1,0,5.48c-.37,4.52-2.53,7.85-6.91,9.44-2.35.86-5.13,2-6.44-1.26-1.37-3.38,1.68-3.51,3.81-4.32,2.87-1.08,4.48-3.19,3-6.22s-4.3-3.94-7-1.85a89.42,89.42,0,0,0-8.78,8.09c-4,4-8.47,7.12-14,8.18-2.94.57-3.73,1.66-3.66,4.52.1,4-1.89,4.86-5.45,2.93-3.88-2.09-7.29-1.07-8.82,2.29s.31,6.56,4.95,8c1.94.59,3.58,1.22,3.28,3.56-.27,2.08-2,2.58-3.72,2.43s-3-.24-2.82,2.09,1.81,2,3.25,2c3.83,0,7.65,0,11.48.06,2.08,0,3.58.93,3.41,3.31-.17,2.2-1.8,2.55-3.59,2.56-3.82,0-7.65.1-11.47,0-2.4-.08-3.15.89-3.13,3.23,0,2.58,1.55,2.47,3.28,2.47,16.14,0,32.27-.07,48.41,0,2.73,0,3.41-1,3.29-3.48-.16-3.65-.16-7.32,0-11,.25-5.85,4.35-10.38,9.33-10.53s9.24,3.89,9.71,10c.31,4,.23,8,.2,12,0,2,.48,3,2.78,3s2.84-.8,2.79-2.9q-.18-6.73,0-13.47c.21-8.15,5.62-13.94,12.69-13.79,6.88.16,12,5.92,12.1,13.84.08,4.49.1,9,0,13.46-.06,2.19.76,2.85,2.89,2.85s2.89-.91,2.84-3c-.09-3.49-.08-7,0-10.47.12-6.79,3.82-11.35,9.23-11.52,5.57-.17,9.72,4.49,10,11.43a87.26,87.26,0,0,1,0,10c-.21,2.95,1,3.63,3.72,3.58C346.7,173.72,354.52,173.82,362.34,173.82Zm76,113.62c13,0,25.94-.12,38.9.07,3.31.05,4.13-.95,4.11-4.16q-.19-34.65,0-69.3c0-2.94-.61-4.06-3.82-4.05q-38.91.19-77.81,0c-3,0-4.13.73-4.07,3.88,0,2.93,1.16,3.75,3.87,3.55,2.48-.18,5,0,7.48,0a2.71,2.71,0,0,1,2.93,2.74,2.83,2.83,0,0,1-2.66,3.08,36.6,36.6,0,0,1-7.47.11c-3.45-.38-4.14,1.12-4.12,4.24.12,18.62.15,37.23,0,55.84,0,3.41,1.15,4.09,4.28,4.05C412.75,287.34,425.56,287.44,438.36,287.44Zm-281.22,0c12.81,0,25.61-.09,38.42.06,3.1,0,4.27-.61,4.24-4q-.23-34.67,0-69.32c0-3.4-1.08-4.15-4.25-4.14q-38.42.17-76.83,0c-3.17,0-4.27.75-4.25,4.14q.24,34.66,0,69.32c0,3.43,1.15,4.07,4.25,4C131.53,287.35,144.33,287.44,157.14,287.44Zm.1,22.5h30.42c12.2,0,12.06,0,12.15-12.14,0-3.44-.82-4.46-4.37-4.43-22.94.16-45.88.08-68.83.08-12.19,0-12,0-12.17,12-.06,4,1.43,4.58,4.89,4.53C132,309.83,144.6,309.94,157.24,309.94Zm155.31-30.59h-.08c0-5.64,0-11.27,0-16.91a10.67,10.67,0,0,0-.11-1.49c-1-7.56-6.87-13.65-13.39-13.84-6.2-.18-12.23,5.58-13.58,13a16.66,16.66,0,0,0-.43,2.95c0,11.27,0,22.54-.08,33.82,0,2.41.95,3.15,3.25,3.12,7-.09,13.93-.16,20.9,0,2.93.07,3.66-1,3.58-3.76C312.43,290.62,312.55,285,312.55,279.35Zm-41-11.36q0,13.45,0,26.92c0,2.52-.89,5.28,3.62,5.28,4.23,0,3.91-2.33,3.9-5.11-.05-10.64-.19-21.28,0-31.91.29-14,10.41-23.53,22.75-21.67,9.24,1.38,16.38,10.39,16.57,21.41s.13,22.26,0,33.4c0,2.71.63,3.94,3.58,3.81,2.47-.1,4-.29,4-3.45q-.17-28.43,0-56.83c0-2.64-.88-3.39-3.45-3.37-15.79.1-31.59.15-47.38,0-3.37,0-3.74,1.36-3.7,4.13C271.66,249.71,271.58,258.85,271.58,268Zm166.64,25.46H407.28c-11.62,0-11.43,0-11.63,11.64-.07,4.05,1.22,5,5.06,4.93,22.8-.17,45.59-.08,68.38-.08,12.46,0,12.32,0,12.31-12.5,0-3.4-1.12-4.09-4.25-4.05C464.18,293.54,451.2,293.45,438.22,293.45ZM297.71,179.78h-43.9c-17.79,0-35.58,0-53.37,0-1,0-3-1-2.88,1.42.08,1.56.65,3,2.61,3,.84,0,1.67,0,2.5,0H393.22c2.18,0,4.85.33,4.82-2.74,0-3.46-3.08-1.67-4.56-1.67C361.56,179.74,329.63,179.78,297.71,179.78ZM72.93,238.37l-.81.14q-5.88,26.14-11.74,52.29c-.26,1.15-1.41,3.05.24,3.36a22.92,22.92,0,0,0,8.38,0c1.77-.34.71-2.57.9-3.93.29-2,1-3.68,3.25-3.67s3,1.82,2.75,3.82c-.59,3.9,1.52,4.46,4.62,4.06,1.58-.21,3.26.43,4.94-.62Q79.21,266.1,72.93,238.37ZM556.62,235c-5.47,14.65-9.91,28.46-9.47,43.29.14,4.77,1.47,9.33,6.44,12.84v-9.51c0-2.16.42-4.25,3.08-4.19s2.82,2.31,2.83,4.38c0,2.92,0,5.85,0,9.66A16.28,16.28,0,0,0,566,278.41C566.58,263.51,562.11,249.68,556.62,235Zm-258.2,75h27.45q12.72,0,25.45,0c1.62,0,3-.13,2.9-2.35-.12-2-1.52-1.86-2.85-1.9-.83,0-1.66,0-2.49,0H248.57c-1.16,0-2.33,0-3.49.06s-1.58.93-1.59,2,.23,2,1.54,2.09c1.16.06,2.32.06,3.49.06ZM35.81,292c7.28-6.94,5.41-30.86-3.63-47-4.61,8.91-8.72,27.33-8.16,36.53.3,5,1.76,8.07,5.34,10.6,0-1.72,0-3.18,0-4.63-.05-2.26,0-4.74,3-4.65s2.79,2.68,2.92,4.86C35.39,289.11,34.82,290.64,35.81,292Zm406.86-92q-21.69,0-43.37,0c-1.56,0-3.61-.54-3.61,2.11s2.07,2.11,3.62,2.11q43.13,0,86.24,0c2,0,3.9-.28,3.8-2.74-.13-2.79-2.51-1.46-3.81-1.47C471.25,200,457,200,442.67,200Zm-289.28,0c-14.63,0-29.26,0-43.89,0-1.13,0-3.07-.83-3.15,1.23-.07,1.75.87,3.22,3.09,3,.5-.05,1,0,1.5,0q42.39,0,84.78,0c1.57,0,4.05,1,4.08-2.06s-2.44-2.11-4-2.12C181.65,200,167.52,200,153.39,200Zm367.33,50.19c-8.57,16.57-10.18,37.83-3.63,42.68,0-1.28,0-2.44,0-3.6-.07-2.34.27-4.64,3.19-4.6,2.65,0,2.91,2.23,2.85,4.37,0,1.36,0,2.72,0,4.09l1.66-.16C531.31,278.46,524.47,265,520.72,250.18ZM299,226.43c-13.11,0-26.22,0-39.33,0-1.24,0-3.23-.87-3.33,1.67s1.56,2.42,3.32,2.42q39.09,0,78.18,0c1.57,0,3.51.49,3.56-2.17,0-3-2.24-1.88-3.56-1.88C324.84,226.39,311.9,226.42,299,226.43ZM336,268.59c0-9.47,0-18.94,0-28.41,0-1.47.77-3.56-2-3.65s-2.2,1.9-2.21,3.45q0,28.17,0,56.32c0,1.52-.67,3.66,2,3.7,3.05,0,2.18-2.37,2.19-4C336,286.86,336,277.73,336,268.59ZM304.24,164.38c0-2.32.11-4.65,0-7-.24-4-1.93-7.15-6.32-7.61-3.24-.34-6.2,3.22-6.38,7.53-.18,4.14.16,8.31-.12,12.43-.23,3.3.89,4.17,4.13,4.13,8.72-.09,8.72.07,8.72-8.52ZM261.6,268.52c0,9.29,0,18.57,0,27.85,0,1.57-.49,3.62,2.13,3.59s1.91-2.25,1.91-3.69q.08-28.09,0-56.19c0-1.44.82-3.6-2-3.53s-2,2.17-2,3.62C261.57,249.62,261.6,259.07,261.6,268.52Zm37.17-48c3.81,0,7.62.1,11.43-.06,1.24,0,3.41,1,3.63-1s-1.14-3.33-3.52-3c-3.06.36-4.41-1.07-4.87-4.15-.52-3.51-3-5.51-6.57-5.59-3.37-.09-5.93,1.72-6.58,4.93-.7,3.51-2,5.43-5.86,4.87-2.05-.3-2.7,1.46-2.67,2.83.05,2.14,2,1.12,3.09,1.16C290.82,220.55,294.8,220.47,298.77,220.47ZM166,194.27a35.8,35.8,0,0,1,5,0c3.86.55,4.62-1.13,4.72-4.75.11-4.12-1.34-5.17-5.12-4.85a89.18,89.18,0,0,1-10.47,0c-2.18-.07-3.24.44-3.38,3-.34,6.46-.39,6.55,6.29,6.56Zm263.28,0a39.07,39.07,0,0,1,5,0c3.76.5,4.72-1,4.79-4.71.08-4-1.2-5.23-5.07-4.89-3.61.32-7.28.05-10.92.08-1.1,0-2.19-.2-2.75,1.37-1.73,4.94.35,8.11,5.51,8.12Zm24.81-9.5a34.16,34.16,0,0,1-5,0c-3.95-.6-4.62,1.27-4.63,4.78s.83,5.17,4.7,4.82c3.62-.32,7.28,0,10.92-.09,1.23,0,2.58.37,3.14-1.54,1.57-5.25-.28-7.93-5.7-7.93C456.36,184.76,455.2,184.77,454.05,184.77Zm-312.47,0a59.2,59.2,0,0,1-6,0c-3.41-.33-3.43,1.89-3.1,4.1.3,2-1.69,5.44,2.77,5.43,4.3,0,8.61,0,12.91,0,1.88,0,2.5-.73,2.7-2.61.67-6.42.32-6.89-6.34-6.89Zm262.93,9.49c2.15,0,4.3.05,6.45,0,1.08,0,2.87.42,3-.9.29-2.81,1.87-7-.82-8.11s-7.45-2.31-10,1c-1.6,2.09-2.55,4.05-5.54,3.84-1.46-.09-2,.92-1.92,2.28s1.05,1.91,2.35,1.9Zm-214.41,0h7.45c1.34,0,2.2-.48,2.22-2s-.49-2.17-2-2.24-3.41.11-3.91-1.52c-1.94-6.36-7-2.9-10.77-3.65-.9-.18-1.36.55-1.66,1.43-1.76,5.07.29,8,5.67,8C188.12,194.27,189.11,194.27,190.1,194.25Zm131.68-29.63c0,2.7,0,4.85,0,7,0,1.74.94,2.44,2.51,2.22s4.54,1.05,4.72-1.23c.41-5.06,1.05-10.25-.53-15.27a3.06,3.06,0,0,0-3-2.25,3.59,3.59,0,0,0-3.24,2.67C321.36,160.18,321.94,162.7,321.78,164.62Zm-55.07.5h-.11c0,2.16,0,4.32,0,6.48s1.37,2.46,3,2.24,4.24,1.15,4.39-1.7c.25-4.62.63-9.29-.33-13.89-.37-1.81-1.52-3.17-3.34-3.17-2.11,0-3.27,1.67-3.5,3.58A53.52,53.52,0,0,0,266.71,165.12Zm210.08,21.56c0-1,0-2,0-3,.14-2.91.41-5.28-4.09-5.25s-3.52,2.7-3.56,5.15.16,5,0,7.43c-.24,2.77,1.06,3.39,3.49,3.26,2.22-.11,4.49.22,4.22-3.16C476.69,189.66,476.79,188.17,476.79,186.68Zm-350.22,0a17,17,0,0,0,0-2.47c-.33-2.38,1.56-5.65-3.52-5.76-5.24-.12-3.83,3.16-4,5.85-.09,2.14.13,4.31,0,6.44-.26,3,1.29,3.52,3.88,3.56,2.74,0,4-.76,3.69-3.65A32.84,32.84,0,0,1,126.57,186.71ZM290.47,58.07c2.67.25,4.81.33,4.72-3.61-.08-3.57-1.94-3.47-4.43-3.47-2.66,0-4.71-.16-4.65,3.72C286.16,58.31,288,58.31,290.47,58.07Zm-10.18.36c.39-1.93-.2-3.13-2.78-3.2-3.1-.09-2.93,1.77-3,3.88s.21,3.44,2.87,3.48C280.48,62.62,280.5,60.84,280.29,58.43Z"/><path class="cls-1" d="M441.68,38.29c-3.95-2.88-7.85-2.89-11.84-.7-4.64,2.55-4.95,4.31-1.56,8.26A11.59,11.59,0,0,1,430,48.27c1,2.08,2.53,4.54-.12,6.2-2.82,1.77-3.88-.67-5.11-2.82-3.53-6.14-11-6.16-14.26.07-1.27,2.42-2.47,3.5-5.26,3.33-3.25-.2-5.34,1.74-5.86,4.93-.38,2.28-1.25,4.05-3.73,3.57-2.88-.57-2.61-3.09-2.23-5.24.46-2.7,1.62-5.83,4.07-6.51C405.14,49.66,409,40.68,417.87,41c1.68.06,1.86-1.64,2.57-2.7,5.9-8.84,16.48-11,25.2-4.93a9.27,9.27,0,0,0,5.84,1.87c6.85,0,12.28,3,15.12,9.4,1.06,2.38,2.35,3,4.71,3.39A12.24,12.24,0,0,1,481.7,59.17c.12,2-.13,3.83-2.41,4.27s-3.26-1.1-3.59-3.12c-.3-1.84-.79-3.61-2.37-4.78-2.53-1.86-4.9-3.24-6.11,1.41-.58,2.23-1.66,4.86-4.75,3.6-2.75-1.12-1.63-3.5-1-5.59,1.55-5.2-.29-10-4.62-12.36A10,10,0,0,0,444.23,45c-1.65,1.87-3.16,4.69-5.86,2.08-2.5-2.41,0-4.47,1.51-6.4Z"/><path class="cls-1" d="M122,52.92a11.44,11.44,0,0,0-8.44,4.52c-2.31,2.85-3.63,5.62.3,8.27a7,7,0,0,1,1.67,1.84c1,1.48,1.51,3.08,0,4.48-1.73,1.55-3.43,1-4.73-.63-3.13-3.92-7.09-5.57-11.87-3.91S91.8,72.67,91.7,77.74c0,1.9-1,3.18-3.07,3.17-2.47,0-2.82-1.69-2.92-3.73-.43-8.06,6.48-15.8,15-16.18,3-.14,4.48-.79,5.84-3.73,5-10.85,18.23-13.8,27.72-6.38a6.88,6.88,0,0,0,5.78,1.77c7.55-1.06,13.85,2.32,17.08,9.2a4.88,4.88,0,0,0,4.22,3.29c6.19,1,10.52,5.67,11,11.22.18,2-.15,3.85-2.35,4.34s-3.11-.76-3.7-2.92c-1.64-6-3.07-6.89-9.62-6.19-2.47.27-3.87-.6-4.09-3.09-.42-4.79-2.77-8.22-7.4-9.55-4.83-1.38-8.83.2-11.68,4.41-1.23,1.81-3,2.31-4.72,1.13s-1.21-2.71-.54-4.42c.6-1.55,3.38-2.09,2.11-4.42C129.72,54.37,125.77,53,122,52.92Z"/><path class="cls-1" d="M192.32,0c7.51,3.81,16.86,5.63,24.41,10.34,4.38,2.73,7.23,8.55,12.4,11.58,2.58,1.51,3.37,4.84,3.21,8a2.83,2.83,0,0,1-2.87,2.87c-1.5.11-2.35-.75-2.95-2.14-3.48-8.07-5.17-8.42-11.5-2.44-1.26,1.19-2.6,1.54-4,.65a2.77,2.77,0,0,1-1-3.91,9.14,9.14,0,0,1,2.31-3.19c3-2.23,3.73-4.44.69-7.18a6.88,6.88,0,0,0-9.45.2,13.62,13.62,0,0,0-2,3.41,3,3,0,0,1-4.12,1.7c-1.85-.74-2.12-2.39-1.54-4.18.2-.63.6-1.21.74-1.85.37-1.68,3.53-2.91.93-5.06a8.89,8.89,0,0,0-8.9-1.69c-2.43.82-4.61,2.26-5.23,4.9-.4,1.69,1.63,2.28,2.47,3.44,1.19,1.63,2,3.41.32,4.92s-3.2.77-4.83-.61c-5.57-4.69-9.09-4.4-13.19,1.28a4.46,4.46,0,0,1-4.62,2c-3.32-.27-5.45,1.25-6,4.56-.41,2.29-1.39,3.88-3.92,3.36-2.79-.58-2.3-3-2-4.86a10,10,0,0,1,8.33-8.82c2.43-.51,4-2.09,5.9-2.94A82.53,82.53,0,0,0,185.62,1.81C187,.67,189.38.75,192.32,0Z"/><path class="cls-1" d="M186.67,42.38h11c1.91,0,3.3.82,3.36,2.84a2.89,2.89,0,0,1-3.09,3.18q-11.44.12-22.89,0a2.88,2.88,0,0,1-3.14-3.12c.06-2,1.49-2.86,3.36-2.88C179,42.35,182.85,42.38,186.67,42.38Z"/><path class="cls-1" d="M428.74,70.31h10.44c2.21,0,4.1.62,4.12,3.19,0,2.4-1.82,2.92-3.8,2.93-6.95,0-13.91,0-20.86,0-2,0-3.75-.53-3.84-2.89-.11-2.71,1.84-3.21,4-3.23C422.12,70.29,425.43,70.31,428.74,70.31Z"/><path class="cls-1" d="M126.09,26c-3.65,0-7.3,0-11,0-1.87,0-3.31-.84-3.38-2.87-.07-2.31,1.39-3.13,3.55-3.12q10.95,0,21.9,0c2.13,0,3.61.67,3.58,3.07S139,26,137,26C133.39,26,129.74,26,126.09,26Z"/><path class="cls-1" d="M112.93,102.35c-2.82,0-5.63.06-8.44,0a2.9,2.9,0,0,1-.26-5.78c5.78-.13,11.56-.16,17.34,0a2.64,2.64,0,0,1,2.61,3c-.08,2-1.39,2.84-3.31,2.85h-7.94Z"/><path class="cls-1" d="M142.6,5.44c2.14,0,4.29,0,6.44,0,2,0,3.79.38,3.94,2.75.16,2.66-1.82,3.3-3.94,3.33q-6.93.12-13.88,0c-1.95,0-3.63-.69-3.66-3.12s1.7-2.91,3.66-2.94C137.64,5.42,140.12,5.44,142.6,5.44Z"/><path class="cls-1" d="M66.91,80.67c-2.16,0-4.33.08-6.48,0a2.94,2.94,0,0,1-3.1-3.18c0-2.06,1.42-2.81,3.36-2.8q6.23,0,12.46,0c1.95,0,3.32.79,3.37,2.81a3,3,0,0,1-3.14,3.17C71.23,80.77,69.07,80.67,66.91,80.67Z"/><path class="cls-1" d="M249.11,20c-2.48,0-5,.07-7.45,0-1.91-.06-3.12-1.05-3.12-3.08s1.23-2.9,3.2-2.89c5,0,9.93,0,14.89,0,2,0,3.17.93,3.14,2.94s-1.31,3-3.21,3C254.08,20,251.59,20,249.11,20Z"/><path class="cls-1" d="M377.68,51.76c2.15,0,4.29,0,6.44,0,1.92,0,3.15.87,3.15,3a2.68,2.68,0,0,1-2.72,2.93q-6.93.21-13.85,0a2.76,2.76,0,0,1-2.71-3c0-1.95,1.3-2.9,3.26-2.9Z"/><path class="cls-1" d="M458.38,76.43h-4c-2.08,0-3.69-.74-3.64-3.09s1.79-3,3.78-3c2.49,0,5,0,7.48,0,2,0,3.79.64,3.9,2.93.12,2.67-1.85,3.19-4.05,3.19Z"/><path class="cls-1" d="M421.16,92c-1.5,0-3,0-4.48,0-1.87,0-3.32-.62-3.39-2.74-.08-2.33,1.42-3.21,3.5-3.25,3-.06,6-.07,8.94,0,2.11,0,3.57,1.11,3.43,3.35-.13,2-1.66,2.66-3.53,2.63C424.14,92,422.65,92,421.16,92Z"/><path class="cls-1" d="M182.48,58.92c1.32,0,2.65-.06,4,0a2.83,2.83,0,0,1,2.88,2.84,2.8,2.8,0,0,1-3.07,3.11c-2.65,0-5.3,0-7.95,0-2.1,0-3.7-.78-3.62-3.07s1.77-2.95,3.82-2.94h4Z"/><path class="cls-1" d="M484.4,43c-2.22-.68-6.8,1.73-6.81-2.85,0-4.82,4.67-2.67,7.46-3.15a17.22,17.22,0,0,1,2.49,0c2.24-.06,4.11.56,4,3.2-.07,2.32-1.73,3-3.83,2.83C486.74,42.9,485.75,43,484.4,43Z"/><path class="cls-1" d="M140.06,88.24c2.41.23,5.74-.6,5.47,3.27-.26,3.6-3.52,2.83-5.88,2.85s-5.15.47-5.12-3C134.57,87.35,137.85,88.58,140.06,88.24Z"/><path class="cls-1" d="M390.17,43c-1.76-.25-3.74.59-5.09-1.17a2.67,2.67,0,0,1,.33-3.94c1.4-1.35,8.46-1.37,9.85,0a2.73,2.73,0,0,1,.4,3.95C394.18,43.73,392,42.65,390.17,43Z"/><path class="cls-1" d="M76.25,66.92c-2.78-.11-6.2.54-5.62-3.66.46-3.27,3.53-2.32,5.7-2.34s5.34-.86,5.68,2.39C82.49,67.9,78.63,66.63,76.25,66.92Z"/><path class="cls-1" d="M99,26c-2.42.08-5,0-4.93-3.23.11-2.86,2.61-2.85,4.84-2.78s5-.32,4.87,3.17C103.6,26.13,101.16,26,99,26Z"/><path class="cls-1" d="M159.53,42.36c2.14,0,4.21.36,4.19,3.08,0,2.36-1.89,3-3.83,3-2.17.06-4.17-.54-4.17-3.16C155.71,42.93,157.51,42.37,159.53,42.36Z"/><path class="cls-1" d="M48.13,74.67c2-.13,3.76.33,3.79,2.76,0,2.6-1.8,3.3-4,3.26-2,0-3.79-.65-3.86-3C44,75.06,45.85,74.52,48.13,74.67Z"/><path class="cls-1" d="M360.11,51.71c2-.06,3.86.29,4,2.7.12,2.59-1.68,3.35-3.95,3.34s-4-.6-3.93-3.3C356.32,52,358.14,51.67,360.11,51.71Z"/><path class="cls-1" d="M493.93,51.72c2-.19,3.78.45,3.89,2.69.12,2.49-1.7,3.33-4,3.35s-4.06-.75-3.95-3.32C490,52.08,491.81,51.6,493.93,51.72Z"/><path class="cls-1" d="M234.24,8c-2.32,0-3.84-.76-3.77-3.09S232.18,2,234.22,2c2.39-.06,4,1,3.83,3.38C237.87,7.47,236.12,8.27,234.24,8Z"/><path class="cls-2" d="M438.36,287.44c-12.8,0-25.61-.1-38.41.06-3.13,0-4.31-.64-4.28-4.05.17-18.61.14-37.22,0-55.84,0-3.12.67-4.62,4.12-4.24a36.6,36.6,0,0,0,7.47-.11,2.83,2.83,0,0,0,2.66-3.08,2.71,2.71,0,0,0-2.93-2.74c-2.49,0-5-.17-7.48,0-2.71.2-3.82-.62-3.87-3.55-.06-3.15,1.09-3.9,4.07-3.88q38.89.14,77.81,0c3.21,0,3.84,1.11,3.82,4.05q-.15,34.65,0,69.3c0,3.21-.8,4.21-4.11,4.16C464.3,287.32,451.33,287.44,438.36,287.44Zm.52-8h11.45a2.85,2.85,0,0,0,3.09-2c.41-1.22.24-2.81-.81-3.09-4.44-1.21-3.17-4.65-3.21-7.54-.07-6,0-11.95,0-17.92,0-1.27-.62-3.13.82-3.63,4.91-1.74,3.73-6.13,2.85-8.79-1-3.17-1.83-7.9-6.78-8.1-5.14-.21-10.3-.08-15.44,0a4.73,4.73,0,0,0-2.78.69c-5.35,4.47-5.75,11.07-1.06,16.16.92,1,.74,2.14.75,3.27,0,7.14,0,14.27,0,21.41,0,1.63.28,3.23-2,3.93-1.65.51-2,2.11-1.53,3.72.56,1.78,2.07,1.89,3.64,1.88C431.57,279.46,435.22,279.48,438.88,279.47Zm-31.82-41.73c2.29-.14,5.27.6,5.37-2.8.11-3.7-3-3.21-5.41-3.22s-5.61-.43-5.57,3.12S404.83,237.52,407.06,237.74Zm3.41,16.93c2,.07,4.55.26,4.65-2.73.09-2.83-2.2-3.26-4.52-3.27s-4.55.21-4.54,3.17C406.08,254.54,408.18,254.78,410.47,254.67Z"/><path class="cls-2" d="M312.55,279.35c0,5.63-.12,11.27.06,16.91.08,2.72-.65,3.83-3.58,3.76-7-.19-13.94-.12-20.9,0-2.3,0-3.26-.71-3.25-3.12.09-11.28,0-22.55.08-33.82a16.66,16.66,0,0,1,.43-2.95c1.35-7.41,7.38-13.17,13.58-13,6.52.19,12.42,6.28,13.39,13.84a10.67,10.67,0,0,1,.11,1.49c0,5.64,0,11.27,0,16.91Z"/><path class="cls-3" d="M271.58,268c0-9.14.08-18.28-.05-27.42,0-2.77.33-4.17,3.7-4.13,15.79.18,31.59.13,47.38,0,2.57,0,3.47.73,3.45,3.37q-.12,28.41,0,56.83c0,3.16-1.56,3.35-4,3.45-3,.13-3.61-1.1-3.58-3.81.12-11.14.19-22.27,0-33.4s-7.33-20-16.57-21.41c-12.34-1.86-22.46,7.64-22.75,21.67-.21,10.63-.07,21.27,0,31.91,0,2.78.33,5.11-3.9,5.11-4.51,0-3.62-2.76-3.62-5.28Q271.56,281.44,271.58,268Z"/><path class="cls-2" d="M438.22,293.45c13,0,26,.09,38.93-.06,3.13,0,4.24.65,4.25,4.05,0,12.5.15,12.5-12.31,12.5-22.79,0-45.58-.09-68.38.08-3.84,0-5.13-.88-5.06-4.93.2-11.63,0-11.64,11.63-11.64Zm26.35,11.14c3.65,0,7.29,0,10.93,0,1.89,0,3.42-.66,3.56-2.63.16-2.22-1.37-3.32-3.45-3.34q-10.94-.11-21.86,0c-2,0-3.61.9-3.51,3.25s2,2.72,3.9,2.72Zm-27.31-6c-2.12,0-4.23.32-4.26,3,0,3.14,2.41,3,4.64,3s4.19-.39,4-3.13S439.41,298.52,437.26,298.57Z"/><path class="cls-2" d="M72.93,238.37q6.27,27.72,12.53,55.44c-1.68,1.05-3.36.41-4.94.62-3.1.4-5.21-.16-4.62-4.06.3-2-.34-3.81-2.75-3.82s-3,1.66-3.25,3.67c-.19,1.36.87,3.59-.9,3.93a22.92,22.92,0,0,1-8.38,0c-1.65-.31-.5-2.21-.24-3.36q5.83-26.15,11.74-52.29Z"/><path class="cls-2" d="M556.62,235c5.49,14.67,10,28.5,9.36,43.4a16.28,16.28,0,0,1-6.47,13.07c0-3.81,0-6.74,0-9.66,0-2.07-.1-4.32-2.83-4.38s-3.08,2-3.08,4.19v9.51c-5-3.51-6.3-8.07-6.44-12.84C546.71,263.47,551.15,249.66,556.62,235Z"/><path class="cls-3" d="M298.42,310h-49.9c-1.17,0-2.33,0-3.49-.06-1.31-.08-1.55-1-1.54-2.09s.29-2,1.59-2,2.33-.06,3.49-.06H348.88c.83,0,1.66,0,2.49,0,1.33,0,2.73-.09,2.85,1.9.13,2.22-1.28,2.35-2.9,2.35q-12.72,0-25.45,0Z"/><path class="cls-2" d="M35.81,292c-1-1.36-.42-2.89-.5-4.32-.13-2.18.06-4.76-2.92-4.86s-3.08,2.39-3,4.65c0,1.45,0,2.91,0,4.63-3.58-2.53-5-5.57-5.34-10.6-.56-9.2,3.55-27.62,8.16-36.53C41.22,261.14,43.09,285.06,35.81,292Z"/><path class="cls-3" d="M442.67,200c14.29,0,28.58,0,42.87.07,1.3,0,3.68-1.32,3.81,1.47.1,2.46-1.76,2.74-3.8,2.74q-43.11,0-86.24,0c-1.55,0-3.61.55-3.62-2.11s2.05-2.11,3.61-2.11Q421,200,442.67,200Z"/><path class="cls-3" d="M153.39,200c14.13,0,28.26,0,42.39,0,1.58,0,4.05-1,4,2.12s-2.51,2-4.08,2.06q-42.39.07-84.78,0c-.5,0-1-.05-1.5,0-2.22.23-3.16-1.24-3.09-3,.08-2.06,2-1.22,3.15-1.23C124.13,200,138.76,200,153.39,200Z"/><path class="cls-2" d="M520.72,250.18c3.75,14.82,10.59,28.28,4,42.78l-1.66.16c0-1.37,0-2.73,0-4.09.06-2.14-.2-4.33-2.85-4.37-2.92,0-3.26,2.26-3.19,4.6,0,1.16,0,2.32,0,3.6C510.54,288,512.15,266.75,520.72,250.18Z"/><path class="cls-2" d="M299,226.43c12.95,0,25.89,0,38.84,0,1.32,0,3.61-1.1,3.56,1.88-.05,2.66-2,2.17-3.56,2.17q-39.09,0-78.18,0c-1.76,0-3.41,0-3.32-2.42s2.09-1.67,3.33-1.67C272.73,226.4,285.84,226.43,299,226.43Z"/><path class="cls-3" d="M336,268.59c0,9.14,0,18.27,0,27.41,0,1.63.86,4-2.19,4-2.68,0-2-2.18-2-3.7q0-28.16,0-56.32c0-1.55-.53-3.55,2.21-3.45s2,2.18,2,3.65C336,249.65,336,259.12,336,268.59Z"/><path class="cls-2" d="M304.24,164.38v1c0,8.59,0,8.43-8.72,8.52-3.24,0-4.36-.83-4.13-4.13.28-4.12-.06-8.29.12-12.43.18-4.31,3.14-7.87,6.38-7.53,4.39.46,6.08,3.58,6.32,7.61C304.35,159.73,304.24,162.06,304.24,164.38Z"/><path class="cls-3" d="M261.6,268.52c0-9.45,0-18.9,0-28.35,0-1.45-.79-3.56,2-3.62s2,2.09,2,3.53q.08,28.1,0,56.19c0,1.44.86,3.66-1.91,3.69s-2.13-2-2.13-3.59C261.58,287.09,261.6,277.81,261.6,268.52Z"/><path class="cls-3" d="M298.77,220.47c-4,0-7.95.08-11.92-.05-1.07,0-3,1-3.09-1.16,0-1.37.62-3.13,2.67-2.83,3.86.56,5.16-1.36,5.86-4.87.65-3.21,3.21-5,6.58-4.93,3.58.08,6.05,2.08,6.57,5.59.46,3.08,1.81,4.51,4.87,4.15,2.38-.28,3.73,1.13,3.52,3s-2.39.94-3.63,1C306.39,220.57,302.58,220.47,298.77,220.47Z"/><path class="cls-3" d="M166,194.27h-3c-6.68,0-6.63-.1-6.29-6.56.14-2.53,1.2-3,3.38-3a89.18,89.18,0,0,0,10.47,0c3.78-.32,5.23.73,5.12,4.85-.1,3.62-.86,5.3-4.72,4.75A35.8,35.8,0,0,0,166,194.27Z"/><path class="cls-3" d="M429.24,194.27h-3.48c-5.16,0-7.24-3.18-5.51-8.12.56-1.57,1.65-1.36,2.75-1.37,3.64,0,7.31.24,10.92-.08,3.87-.34,5.15.88,5.07,4.89-.07,3.68-1,5.21-4.79,4.71A39.07,39.07,0,0,0,429.24,194.27Z"/><path class="cls-3" d="M454.05,184.77c1.15,0,2.31,0,3.47,0,5.42,0,7.27,2.68,5.7,7.93-.56,1.91-1.91,1.52-3.14,1.54-3.64.06-7.3-.23-10.92.09-3.87.35-4.71-1.23-4.7-4.82s.68-5.38,4.63-4.78A34.16,34.16,0,0,0,454.05,184.77Z"/><path class="cls-3" d="M141.58,184.77h3c6.66,0,7,.47,6.34,6.89-.2,1.88-.82,2.64-2.7,2.61-4.3-.06-8.61,0-12.91,0-4.46,0-2.47-3.38-2.77-5.43-.33-2.21-.31-4.43,3.1-4.1A59.2,59.2,0,0,0,141.58,184.77Z"/><path class="cls-3" d="M404.51,194.26h-6.45c-1.3,0-2.27-.4-2.35-1.9s.46-2.37,1.92-2.28c3,.21,3.94-1.75,5.54-3.84,2.52-3.3,7.15-2.11,10-1s1.11,5.3.82,8.11c-.13,1.32-1.92.86-3,.9C408.81,194.31,406.66,194.26,404.51,194.26Z"/><path class="cls-3" d="M190.1,194.26h-3c-5.38,0-7.43-2.92-5.67-8,.3-.88.76-1.61,1.66-1.43,3.72.75,8.83-2.71,10.77,3.65.5,1.63,2.44,1.45,3.91,1.52s2,.86,2,2.24-.88,2-2.22,2Z"/><path class="cls-3" d="M321.78,164.62c.16-1.92-.42-4.44.47-6.85a3.59,3.59,0,0,1,3.24-2.67,3.06,3.06,0,0,1,3,2.25c1.58,5,.94,10.21.53,15.27-.18,2.28-3.06,1-4.72,1.23s-2.53-.48-2.51-2.22C321.8,169.47,321.78,167.32,321.78,164.62Z"/><path class="cls-3" d="M266.71,165.12a53.52,53.52,0,0,1,.06-6.46c.23-1.91,1.39-3.58,3.5-3.58,1.82,0,3,1.36,3.34,3.17,1,4.6.58,9.27.33,13.89-.15,2.85-2.81,1.48-4.39,1.7s-3-.05-3-2.24,0-4.32,0-6.48Z"/><path class="cls-3" d="M476.79,186.68c0,1.49-.1,3,0,4.46.27,3.38-2,3.05-4.22,3.16-2.43.13-3.73-.49-3.49-3.26.21-2.46,0-4.95,0-7.43s-1-5.12,3.56-5.15,4.23,2.34,4.09,5.25C476.76,184.7,476.79,185.69,476.79,186.68Z"/><path class="cls-3" d="M126.57,186.71a32.84,32.84,0,0,0,0,4c.35,2.89-.95,3.7-3.69,3.65-2.59,0-4.14-.53-3.88-3.56.18-2.13,0-4.3,0-6.44.12-2.69-1.29-6,4-5.85,5.08.11,3.19,3.38,3.52,5.76A17,17,0,0,1,126.57,186.71Z"/><path class="cls-3" d="M290.47,58.07c-2.47.24-4.31.24-4.36-3.36-.06-3.88,2-3.73,4.65-3.72,2.49,0,4.35-.1,4.43,3.47C295.28,58.4,293.14,58.32,290.47,58.07Z"/><path class="cls-3" d="M280.29,58.43c.21,2.41.19,4.19-2.88,4.16-2.66,0-2.9-1.41-2.87-3.48s-.13-4,3-3.88C280.09,55.3,280.68,56.5,280.29,58.43Z"/><path class="cls-1" d="M240.09,255c0,3.65,0,7.3,0,11,0,1.93-.13,3.55,2.12,5,2.51,1.6,1.4,5-1.72,5.24a155.09,155.09,0,0,1-17.91,0c-3.14-.18-4.3-3.66-1.78-5.2s2.14-3.43,2.15-5.47c0-7.47.09-14.93,0-22.4-.05-3.27,1-4.85,4.58-4.76,14.65.37,12.34-2.08,12.56,12.18C240.11,252,240.09,253.48,240.09,255Zm-6,2.7c0-3.65,0-7.31,0-11,0-1.65-.69-2.38-2.39-2.4s-2.88.36-2.86,2.43c0,7,0,14,0,20.95,0,1.83.66,2.71,2.63,2.71s2.63-.94,2.61-2.74C234.11,264.33,234.14,261,234.14,257.68Z"/><path class="cls-1" d="M372.79,254.74c0,3.48,0,7,0,10.45,0,2.22-.38,4.26,2.33,5.89,2.45,1.48,1.08,4.92-2.16,5.1-5.79.32-11.62.14-17.43.07a3,3,0,0,1-3.05-2.12c-.37-1.35-.3-2.85,1.19-3.41,2.46-.92,1.77-2.9,1.79-4.59,0-7.47.17-14.94,0-22.4-.11-4.12,1.45-5.55,5.56-5.42,13.43.4,11.64-2,11.79,11.45C372.8,251.42,372.79,253.08,372.79,254.74Zm-11.34,2.56c0,3.3,0,6.61,0,9.91,0,1.83.14,3.21,2.58,3.21,2.11,0,3-.71,3-2.86q-.11-10.15,0-20.33c0-2.07-.68-2.95-2.87-2.95s-2.74,1.15-2.68,3.1C361.51,250.68,361.45,254,361.45,257.3Z"/><path class="cls-1" d="M344.67,201.63c-5.48,0-10.95,0-16.43,0-2,0-3.82-.29-3.93-2.71-.12-2.66,1.75-3.31,4-3.31h33.37c2.27,0,4.06.75,3.92,3.36-.12,2.41-2,2.68-4,2.67C356,201.61,350.32,201.63,344.67,201.63Z"/><path class="cls-1" d="M374.47,288.94c1.66,0,3.33-.07,5,0,1.85.09,3.28.9,3.32,2.95s-1.21,3-3.15,3.06c-3.66.05-7.32.09-11,0a2.88,2.88,0,0,1-3.1-3.15c.05-1.81,1.31-2.67,2.95-2.78,2-.13,4,0,6,0Z"/><path class="cls-1" d="M224.22,201.63h-6.46c-1.93,0-3.24-.71-3.33-2.8a2.77,2.77,0,0,1,3-3.14c4.64-.09,9.29-.11,13.93,0a2.79,2.79,0,0,1,2.86,3.32,2.75,2.75,0,0,1-3.07,2.6C228.87,201.6,226.55,201.62,224.22,201.63Z"/><path class="cls-1" d="M366.74,216.74c-2,0-4,0-6,0a2.8,2.8,0,0,1-3.1-2.59,2.89,2.89,0,0,1,2.94-3.32c4.13-.16,8.29-.13,12.43,0a3,3,0,0,1,3.11,3.19c-.06,2-1.54,2.75-3.44,2.73Z"/><path class="cls-1" d="M375.55,231.22c-2.61-.3-5.6.21-5.29-3.31.36-4.06,3.84-2.72,6.22-2.85s5.17-.35,4.9,3.16C381.05,232.41,377.4,230.49,375.55,231.22Z"/><path class="cls-1" d="M217.17,215.19c-2.45-.12-5.45.33-5.46-2.95,0-3.58,3.15-3.16,5.59-3.19s5.2-.23,5.26,3C222.62,215.91,219.29,214.88,217.17,215.19Z"/><path class="cls-1" d="M377.32,201.63c-2.34,0-5,.41-5.05-2.71-.07-3.72,3-3.25,5.38-3.3s5.06,0,4.82,3.34S379.25,201.44,377.32,201.63Z"/><path class="cls-1" d="M354,288.46c-2.14,0-4.63.31-4.67-2.83,0-3,2.23-3.2,4.5-3.18s4.55-.11,4.64,3S356.2,288.51,354,288.46Z"/><path class="cls-1" d="M297.76,133.61A17.08,17.08,0,0,1,280.6,116.1,17.29,17.29,0,0,1,298.25,99a17.52,17.52,0,0,1,17,17.35A17.29,17.29,0,0,1,297.76,133.61Zm11.47-17.36c-.08-6-5.75-11.47-11.69-11.25a11.69,11.69,0,0,0-10.91,11.42,11.43,11.43,0,0,0,11.59,11.16C304.08,127.42,309.3,122.06,309.23,116.25Z"/><path class="cls-1" d="M375.86,168.26H373.4c-2.26,0-4.58-.13-4.51-3.14.06-2.63,2.23-2.91,4.28-3s3.94-.05,5.91,0,3.76.75,3.8,3c.05,2.58-1.88,3.15-4.07,3.12C377.83,168.24,376.84,168.25,375.86,168.26Z"/><path class="cls-1" d="M233.8,168.27c-2.3-.06-5,.27-5.12-2.74-.18-3.28,2.55-3.38,4.93-3.38s5.07,0,4.94,3.35C238.42,168.64,235.74,168.13,233.8,168.27Z"/><path class="cls-1" d="M438.88,279.48c-3.66,0-7.31,0-11,0-1.57,0-3.08-.1-3.64-1.88-.51-1.61-.12-3.21,1.53-3.72,2.24-.7,2-2.3,2-3.93,0-7.14,0-14.27,0-21.41,0-1.13.17-2.28-.75-3.27-4.69-5.09-4.29-11.69,1.06-16.16a4.73,4.73,0,0,1,2.78-.69c5.14-.07,10.3-.2,15.44,0,4.95.2,5.74,4.93,6.78,8.1.88,2.66,2.06,7.05-2.85,8.79-1.44.5-.81,2.36-.82,3.63,0,6-.07,12,0,17.92,0,2.89-1.23,6.33,3.21,7.54,1.05.28,1.22,1.87.81,3.09a2.85,2.85,0,0,1-3.09,2ZM433.6,259c0,3.66.23,7.33-.06,11-.37,4.66,2.85,3.41,5.26,3.5s4.94.69,4.72-3.51c-.36-7-.27-14,0-20.93.11-3.32-1-4.08-4.2-4.28-4.58-.27-6.35,1.16-5.77,5.8A68.17,68.17,0,0,1,433.6,259Zm-3.32-20.32h17C443,232.43,433.77,232.51,430.28,238.71Z"/><path class="cls-1" d="M407.06,237.74c-2.23-.22-5.56.77-5.61-2.9s3.12-3.13,5.57-3.12,5.52-.48,5.41,3.22C412.33,238.34,409.35,237.6,407.06,237.74Z"/><path class="cls-1" d="M410.47,254.67c-2.29.11-4.39-.13-4.41-2.83,0-3,2.25-3.18,4.54-3.17s4.61.44,4.52,3.27C415,254.93,412.48,254.74,410.47,254.67Z"/><path class="cls-1" d="M156.76,279.48c-3.66,0-7.32-.07-11,0-1.92.05-3.37-.54-3.79-2.43a2.68,2.68,0,0,1,2.24-3.34c2.39-.37,2.26-1.84,2.25-3.56,0-7.14,0-14.29,0-21.43,0-1.24.32-2.47-1-3.59-4.55-3.88-3.7-6.82-1-12.31,2.4-4.91,5.58-4.55,9.47-4.47,2.49.05,5,0,7.48,0A10.64,10.64,0,0,1,172,241.88c-.19.78-.48,2-1,2.17-4.43,1.26-3.13,4.81-3.19,7.74-.09,5-.1,10,0,15,.06,2.88-1.25,6.31,3,7.79,1.16.4,1,2.05.63,3.16-.48,1.49-1.79,1.79-3.21,1.79Zm5-20c0-3.82-.16-7.64,0-11.45.21-4.06-2.67-2.94-4.74-3s-4.76-.85-4.64,3.11c.21,7.46,0,14.93.08,22.4,0,1.05-.38,2.24,1.18,2.87,4.61,1.85,8.07-.44,8.08-5.48Zm4-20.53c-3.29-5.21-3.32-5.07-12.07-4.68-3.22.15-3.75,2.28-5.26,4.68Z"/><path class="cls-1" d="M184.56,223.4c-2.23-.59-7,1.67-6.84-3.26.13-4.55,4.63-2.21,7.23-2.67a32.76,32.76,0,0,1,5-.06c1.89,0,3.43.58,3.57,2.59.16,2.22-1.38,3.25-3.45,3.38C188.38,223.48,186.72,223.4,184.56,223.4Z"/><path class="cls-1" d="M190.34,238.15c-2.13-.19-4.7.17-4.8-2.9S187.74,232,190,232s4.56-.11,4.71,3S192.47,238.05,190.34,238.15Z"/><path class="cls-1" d="M464.57,304.59H454.14c-1.94,0-3.79-.24-3.9-2.72s1.49-3.23,3.51-3.25q10.94-.11,21.86,0c2.08,0,3.61,1.12,3.45,3.34-.14,2-1.67,2.65-3.56,2.63C471.86,304.56,468.22,304.59,464.57,304.59Z"/><path class="cls-1" d="M437.27,298.57c2.14-.05,4.21.25,4.38,2.9s-1.78,3.17-4,3.13-4.66.11-4.64-3C433,298.89,435.14,298.58,437.27,298.57Z"/><path class="cls-3" d="M234.14,257.68c0,3.33,0,6.65,0,10,0,1.8-.61,2.74-2.61,2.74s-2.64-.88-2.63-2.71c0-7,0-14,0-20.95,0-2.07,1.11-2.44,2.86-2.43s2.4.75,2.39,2.4C234.12,250.37,234.14,254,234.14,257.68Z"/><path class="cls-3" d="M361.45,257.3c0-3.31.06-6.62,0-9.92-.06-1.95.36-3.09,2.68-3.1s2.89.88,2.87,2.95q-.11,10.17,0,20.33c0,2.15-.85,2.85-3,2.86-2.44,0-2.61-1.38-2.58-3.21C361.48,263.91,361.45,260.6,361.45,257.3Z"/><path class="cls-2" d="M309.23,116.25c.07,5.81-5.15,11.17-11,11.33a11.43,11.43,0,0,1-11.59-11.16A11.69,11.69,0,0,1,297.54,105C303.48,104.78,309.15,110.24,309.23,116.25ZM297.86,107a3.12,3.12,0,0,0-2.86,2.35c-1.54,4.56,1.26,11.47,5.46,13.71a2.78,2.78,0,0,0,3.61-.42c1.06-1,1.41-2.71.4-3.6-3-2.66-3.67-6-3.8-9.74C300.62,107.82,299.35,107.09,297.86,107Z"/><path class="cls-3" d="M433.6,259a68.17,68.17,0,0,0-.07-8.46c-.58-4.64,1.19-6.07,5.77-5.8,3.21.2,4.31,1,4.2,4.28-.25,7-.34,14,0,20.93.22,4.2-2.27,3.61-4.72,3.51s-5.63,1.16-5.26-3.5C433.83,266.36,433.6,262.69,433.6,259Z"/><path class="cls-3" d="M430.28,238.71c3.49-6.2,12.68-6.28,17,0Z"/><path class="cls-2" d="M161.78,259.48v8.46c0,5-3.47,7.33-8.08,5.48-1.56-.63-1.17-1.82-1.18-2.87,0-7.47.13-14.94-.08-22.4-.12-4,2.47-3.17,4.64-3.11s4.95-1.07,4.74,3C161.62,251.84,161.78,255.66,161.78,259.48Z"/><path class="cls-3" d="M165.77,239H148.44c1.51-2.4,2-4.53,5.26-4.68C162.45,233.88,162.48,233.74,165.77,239Z"/><path class="cls-1" d="M297.86,107c1.49.1,2.76.83,2.81,2.3.13,3.73.78,7.08,3.8,9.74,1,.89.66,2.55-.4,3.6a2.78,2.78,0,0,1-3.61.42c-4.2-2.24-7-9.15-5.46-13.71A3.12,3.12,0,0,1,297.86,107Z"/></g></g></svg>