<svg xmlns="http://www.w3.org/2000/svg" viewBox="0 0 89.36 89.37"><defs><style>.cls-1{fill:#3a5d81;}</style></defs><g id="Ebene_2" data-name="Ebene 2"><g id="Ebene_1-2" data-name="Ebene 1"><path class="cls-1" d="M47,89.37H42c0-.12-.15-.09-.23-.09A44.51,44.51,0,0,1,10.92,74,44,44,0,0,1,.16,48.49,4.56,4.56,0,0,0,0,47.07V42.24c.11-.05.08-.15.08-.24a40.34,40.34,0,0,1,.76-6A43.8,43.8,0,0,1,11.67,14.6,44.14,44.14,0,0,1,41.38.14,42.74,42.74,0,0,1,53.84,1,44,44,0,0,1,78,15,43.84,43.84,0,0,1,89.22,41.43a42.21,42.21,0,0,1-1.43,14.92A44.18,44.18,0,0,1,65.73,84.09a42.94,42.94,0,0,1-17.28,5.12A4.19,4.19,0,0,0,47,89.37ZM83.77,45a42.07,42.07,0,0,0-1.55-11.91C79.13,22.24,72.6,14.23,62.38,9.39a42,42,0,0,0-22.8-3.5A40,40,0,0,0,29.2,8.42,36,36,0,0,0,12.42,21.64,39.25,39.25,0,0,0,5.67,42,43.63,43.63,0,0,0,6.84,55.21a36.9,36.9,0,0,0,8.5,16.25,37.33,37.33,0,0,0,23,11.88,44.15,44.15,0,0,0,10,.3,41.53,41.53,0,0,0,9.57-1.84A36,36,0,0,0,78.56,65.15,40.32,40.32,0,0,0,83.77,45Z"/><path class="cls-1" d="M42.56,25.24a3.43,3.43,0,0,1,3.47.25l.51.43a3.72,3.72,0,0,1,.83,2.46,5.76,5.76,0,0,1-.6,1.75L35.18,41.77a.56.56,0,0,0-.42.45l.43,0H63.6c1.11.07,2.28-.1,3.25.66l.18.16a4.56,4.56,0,0,1,.89,3,3.4,3.4,0,0,1-2.81,2.81l-3.78,0H60.06c-1.27,0,4.72,0,3.46,0H34.43l2.29,2.18,1.56,1.55,1,1,1.56,1.55,1,1,1.56,1.55,1,1,1.56,1.56,1,1A3.66,3.66,0,0,1,47.1,64a3.92,3.92,0,0,1-2.27,2.14,3.68,3.68,0,0,1-2.67-.44L41.29,65a9.88,9.88,0,0,0-1.74-1.74l-.79-.79A10.17,10.17,0,0,0,37,60.72l-.8-.79a9.82,9.82,0,0,0-1.73-1.74l-.8-.79A9.82,9.82,0,0,0,32,55.66l-.8-.79a9.82,9.82,0,0,0-1.73-1.74l-.79-.79a9.82,9.82,0,0,0-1.74-1.73l-.79-.8a9.82,9.82,0,0,0-1.74-1.73l-.57-.73a4.33,4.33,0,0,1-.11-3.26,27.32,27.32,0,0,1,3.63-3.82Q34.92,32.74,42.56,25.24Z"/></g></g></svg>