<svg xmlns="http://www.w3.org/2000/svg" viewBox="0 0 130.54 101.44"><defs><style>.cls-1{fill:#3a5d81;}</style></defs><g id="Ebene_2" data-name="Ebene 2"><g id="Ebene_1-2" data-name="Ebene 1"><path class="cls-1" d="M97.93,101.42c-2.82,0-5.63,0-8.45,0a2.9,2.9,0,0,1-.26-5.79c5.78-.13,11.57-.16,17.34,0a2.64,2.64,0,0,1,2.62,3c-.08,2-1.39,2.84-3.31,2.85H97.93Z"/><path class="cls-1" d="M125.06,87.3c2.41.23,5.74-.6,5.46,3.27-.25,3.6-3.52,2.83-5.87,2.85s-5.15.47-5.12-3C119.57,86.41,122.85,87.64,125.06,87.3Z"/><path class="cls-1" d="M22.87,28c-2.16,0-4.32.09-6.47,0a3,3,0,0,1-3.11-3.18c0-2.06,1.42-2.81,3.36-2.8q6.23,0,12.46,0c1.95,0,3.32.79,3.37,2.81A3,3,0,0,1,29.35,28C27.2,28.09,25,28,22.87,28Z"/><path class="cls-1" d="M32.21,14.24c-2.78-.11-6.2.54-5.61-3.66.45-3.27,3.52-2.32,5.7-2.34s5.34-.85,5.68,2.39C38.46,15.23,34.6,14,32.21,14.24Z"/><path class="cls-1" d="M4.09,22c2-.13,3.76.33,3.79,2.76,0,2.61-1.8,3.3-4,3.26-2,0-3.78-.64-3.86-3C-.08,22.39,1.82,21.85,4.09,22Z"/><path class="cls-1" d="M85.06,89.37h-5c0-.12-.15-.09-.23-.09A44.51,44.51,0,0,1,48.94,74,44,44,0,0,1,38.18,48.49,5.25,5.25,0,0,0,38,47.07V42.24c.11-.05.08-.15.08-.24a40.34,40.34,0,0,1,.76-6A44.76,44.76,0,0,1,79.4.14,42.65,42.65,0,0,1,91.85,1a44.77,44.77,0,0,1,35.39,40.47,42.45,42.45,0,0,1-1.43,14.92,44.22,44.22,0,0,1-22.06,27.74,42.94,42.94,0,0,1-17.28,5.12A4.19,4.19,0,0,0,85.06,89.37ZM121.79,45a42.07,42.07,0,0,0-1.55-11.91c-3.09-10.82-9.62-18.83-19.84-23.67a42,42,0,0,0-22.8-3.5A39.9,39.9,0,0,0,67.22,8.42,36,36,0,0,0,50.44,21.64,39.25,39.25,0,0,0,43.69,42a43.31,43.31,0,0,0,1.17,13.18,36.9,36.9,0,0,0,8.5,16.25,37.33,37.33,0,0,0,23,11.88,44.15,44.15,0,0,0,10,.3,41.53,41.53,0,0,0,9.57-1.84,36,36,0,0,0,20.74-16.65A40.32,40.32,0,0,0,121.79,45Z"/><path class="cls-1" d="M57.79,28.64a8.85,8.85,0,0,1,2.5-6.44,11.83,11.83,0,0,1,4.77-3.46,12.67,12.67,0,0,1,2.55-.63,3.05,3.05,0,0,1,3.07,1.35,31.34,31.34,0,0,1,1.8,3.26c1.12,2.14,2.22,4.3,3.33,6.45a4.46,4.46,0,0,1-1.09,5.59,8.24,8.24,0,0,0-1.33,1.31,2.77,2.77,0,0,0,0,4.08q2.13,2.55,4.29,5.07c2.86,3.31,5.73,6.61,8.75,9.78a4.16,4.16,0,0,0,2.14,1.38,2.21,2.21,0,0,0,2.19-.67,8.35,8.35,0,0,0,1.08-1.23,3.7,3.7,0,0,1,4.31-1.24,9.08,9.08,0,0,1,1.62.81c2.68,1.65,5.35,3.31,8,4.94a3.71,3.71,0,0,1,1.77,3,5.32,5.32,0,0,1-.52,2.74,19.57,19.57,0,0,1-4.57,6.49,6.79,6.79,0,0,1-6.94,1.62A32.67,32.67,0,0,1,87.22,69a57.46,57.46,0,0,1-13-11.38A117.48,117.48,0,0,1,62.4,41.35a36.24,36.24,0,0,1-4.09-9.22A13.3,13.3,0,0,1,57.79,28.64Z"/></g></g></svg>