<svg xmlns="http://www.w3.org/2000/svg" viewBox="0 0 131.54 101.44"><defs><style>.cls-1{fill:#3a5d81;}.cls-2{fill:#fff;}</style></defs><g id="Ebene_2" data-name="Ebene 2"><g id="Ebene_1-2" data-name="Ebene 1"><path class="cls-1" d="M98.93,101.42c-2.82,0-5.63,0-8.45,0a2.9,2.9,0,0,1-.26-5.79c5.78-.13,11.57-.16,17.34,0a2.64,2.64,0,0,1,2.62,3c-.08,2-1.39,2.84-3.31,2.85H98.93Z"/><path class="cls-1" d="M126.06,87.3c2.41.23,5.74-.6,5.46,3.27-.25,3.6-3.52,2.83-5.87,2.85s-5.15.47-5.12-3C120.57,86.41,123.85,87.64,126.06,87.3Z"/><path class="cls-1" d="M23.87,28c-2.16,0-4.32.09-6.47,0a3,3,0,0,1-3.11-3.18c0-2.06,1.42-2.81,3.36-2.8q6.23,0,12.46,0c2,0,3.32.79,3.37,2.81A3,3,0,0,1,30.35,28C28.2,28.09,26,28,23.87,28Z"/><path class="cls-1" d="M33.21,14.24c-2.78-.11-6.2.54-5.61-3.66.45-3.27,3.52-2.32,5.7-2.34s5.34-.85,5.68,2.39C39.46,15.23,35.6,14,33.21,14.24Z"/><path class="cls-1" d="M4.09,34c2-.13,3.76.33,3.79,2.76,0,2.61-1.8,3.3-4,3.26-2,0-3.78-.64-3.86-2.95C-.08,34.39,1.82,33.85,4.09,34Z"/><path class="cls-1" d="M86.06,89.37h-5c0-.12-.15-.09-.23-.09A44.51,44.51,0,0,1,49.94,74,44,44,0,0,1,39.18,48.49,5.25,5.25,0,0,0,39,47.07V42.24c.11-.05.08-.15.08-.24a40.34,40.34,0,0,1,.76-6A44.76,44.76,0,0,1,80.4.14,42.65,42.65,0,0,1,92.85,1a44.77,44.77,0,0,1,35.39,40.47,42.45,42.45,0,0,1-1.43,14.92,44.22,44.22,0,0,1-22.06,27.74,42.94,42.94,0,0,1-17.28,5.12A4.19,4.19,0,0,0,86.06,89.37ZM122.79,45a42.07,42.07,0,0,0-1.55-11.91c-3.09-10.82-9.62-18.83-19.84-23.67a42,42,0,0,0-22.8-3.5A39.9,39.9,0,0,0,68.22,8.42,36,36,0,0,0,51.44,21.64,39.25,39.25,0,0,0,44.69,42a43.31,43.31,0,0,0,1.17,13.18,36.9,36.9,0,0,0,8.5,16.25,37.33,37.33,0,0,0,23,11.88,44.15,44.15,0,0,0,10,.3,41.53,41.53,0,0,0,9.57-1.84,36,36,0,0,0,20.74-16.65A40.32,40.32,0,0,0,122.79,45Z"/><path class="cls-1" d="M84.31,69.08a2.4,2.4,0,0,0-.44-.12,2.84,2.84,0,0,1-1.43-1A167.42,167.42,0,0,1,71.58,52,60.3,60.3,0,0,1,67,42.81a22,22,0,0,1-1.14-4.13,12.4,12.4,0,0,1-.06-3.22,17.59,17.59,0,0,1,1.88-6.59,18.7,18.7,0,0,1,12.13-9.79,18.23,18.23,0,0,1,6.74-.53,18.71,18.71,0,0,1,17,17.11,15.13,15.13,0,0,1-1,6.56,51.54,51.54,0,0,1-3.67,7.86,143.46,143.46,0,0,1-9.32,14.33c-.83,1.15-1.69,2.28-2.53,3.42a2.83,2.83,0,0,1-2,1.21l0,0Z"/><circle class="cls-2" cx="84.86" cy="35.46" r="8.57"/></g></g></svg>